<svg width="33" height="32" viewBox="0 0 33 32" fill="none" xmlns="http://www.w3.org/2000/svg">
<path d="M16.6666 0C7.83483 0 0.666626 7.16819 0.666626 16C0.666626 24.8318 7.83483 32 16.6666 32C25.4984 32 32.6666 24.8318 32.6666 16C32.6911 7.16819 25.5229 0 16.6666 0ZM26.0611 19.7431C26.0611 22.8501 23.5413 25.37 20.4342 25.37H12.948C9.84093 25.37 7.32105 22.8501 7.32105 19.7431V12.2569C7.32105 9.14985 9.84093 6.62997 12.948 6.62997H20.4342C23.5413 6.62997 26.0611 9.14985 26.0611 12.2569V19.7431Z" fill="white"/>
<path d="M16.7645 13.0396C15.1254 13.0396 13.8042 14.3606 13.8042 15.9998C13.8042 17.6389 15.1254 18.96 16.7645 18.96C18.4036 18.96 19.7247 17.6389 19.7247 15.9998C19.7247 14.3606 18.3792 13.0396 16.7645 13.0396Z" fill="white"/>
<path d="M20.4342 8.36719H12.9479C10.8195 8.36719 9.08252 10.1042 9.08252 12.2326V19.7189C9.08252 21.8473 10.8195 23.5843 12.9479 23.5843H20.4342C22.5626 23.5843 24.2996 21.8473 24.2996 19.7189V12.2326C24.2996 10.1042 22.5626 8.36719 20.4342 8.36719ZM16.7645 20.6241C14.2201 20.6241 12.1406 18.5446 12.1406 16.0002C12.1406 13.4559 14.2201 11.3764 16.7645 11.3764C19.3088 11.3764 21.3883 13.4559 21.3883 16.0002C21.3883 18.5446 19.3088 20.6241 16.7645 20.6241ZM21.6574 12.1592C21.0458 12.1592 20.5565 11.6699 20.5565 11.0583C20.5565 10.4467 21.0458 9.9574 21.6574 9.9574C22.2691 9.9574 22.7584 10.4467 22.7584 11.0583C22.7584 11.6699 22.2446 12.1592 21.6574 12.1592Z" fill="white"/>
</svg>
