<svg width="33" height="32" viewBox="0 0 33 32" fill="none" xmlns="http://www.w3.org/2000/svg">
<path d="M19.2844 15.902L15.0764 13.6023C14.9052 13.5045 14.318 13.6268 14.318 13.8225V18.2996C14.318 18.4953 14.9052 18.6176 15.0764 18.5197L19.4801 16.3424C19.6513 16.269 19.4556 15.9999 19.2844 15.902Z" fill="white"/>
<path d="M16.6666 0C7.83482 0 0.666626 7.16819 0.666626 16C0.666626 24.8318 7.83482 32 16.6666 32C25.4984 32 32.6666 24.8318 32.6666 16C32.6911 7.16819 25.5229 0 16.6666 0ZM25.2538 18.2997C25.2538 20.4281 23.5412 22.1407 21.4128 22.1407H11.5779C9.4495 22.1407 7.73696 20.4281 7.73696 18.2997V13.7248C7.73696 11.5963 9.4495 9.88379 11.5779 9.88379H21.4128C23.5412 9.88379 25.2538 11.5963 25.2538 13.7248V18.2997Z" fill="white"/>
</svg>
