<svg width="135" height="40" viewBox="0 0 135 40" fill="none" xmlns="http://www.w3.org/2000/svg">
<mask id="mask0_6680_4544" style="mask-type:luminance" maskUnits="userSpaceOnUse" x="0" y="0" width="135" height="40">
<path d="M0 0.000205994H135V40H0V0.000205994Z" fill="white"/>
</mask>
<g mask="url(#mask0_6680_4544)">
<path d="M130 40H4.99996C2.25002 40 0 37.7501 0 35V5.00017C0 2.25002 2.25002 0.000164032 4.99996 0.000164032H130C132.75 0.000164032 135 2.25002 135 5.00017V35C135 37.7501 132.75 40 130 40Z" fill="#100F0D"/>
<path d="M130 0.000205994H4.99996C2.25002 0.000205994 0 2.25027 0 5.00021V35C0 37.7501 2.25002 40 4.99996 40H130C132.75 40 135 37.7501 135 35V5.00021C135 2.25027 132.75 0.000205994 130 0.000205994ZM130 0.800175C132.316 0.800175 134.2 2.68411 134.2 5.00021V35C134.2 37.3161 132.316 39.2001 130 39.2001H4.99996C2.68399 39.2001 0.799994 37.3161 0.799994 35V5.00021C0.799994 2.68411 2.68399 0.800175 4.99996 0.800175H130Z" fill="#A2A2A1"/>
<path d="M106.938 30.0001H108.804V17.4992H106.938V30.0001ZM123.745 22.0021L121.606 27.4221H121.542L119.322 22.0021H117.312L120.641 29.5771L118.743 33.7911H120.689L125.82 22.0021H123.745ZM113.163 28.5801C112.551 28.5801 111.699 28.2741 111.699 27.5183C111.699 26.5531 112.76 26.1841 113.677 26.1841C114.497 26.1841 114.883 26.3612 115.382 26.602C115.237 27.7602 114.24 28.5801 113.163 28.5801ZM113.388 21.7291C112.037 21.7291 110.637 22.3241 110.058 23.6421L111.715 24.3343C112.069 23.6421 112.728 23.4171 113.42 23.4171C114.385 23.4171 115.366 23.9961 115.382 25.0251V25.1541C115.044 24.9612 114.32 24.6722 113.436 24.6722C111.651 24.6722 109.833 25.6532 109.833 27.486C109.833 29.1592 111.297 30.2362 112.937 30.2362C114.192 30.2362 114.883 29.6741 115.318 29.0141H115.382V29.9792H117.183V25.186C117.183 22.9671 115.527 21.7291 113.388 21.7291ZM101.856 23.524H99.2016V19.2381H101.856C103.251 19.2381 104.043 20.3942 104.043 21.3812C104.043 22.3502 103.251 23.524 101.856 23.524ZM101.808 17.4992H97.3367V30.0001H99.2016V25.2642H101.808C103.876 25.2642 105.909 23.766 105.909 21.3812C105.909 18.9961 103.876 17.4992 101.808 17.4992ZM77.4268 28.5822C76.1378 28.5822 75.0589 27.5032 75.0589 26.0211C75.0589 24.5232 76.1378 23.4271 77.4268 23.4271C78.6997 23.4271 79.6977 24.5232 79.6977 26.0211C79.6977 27.5032 78.6997 28.5822 77.4268 28.5822ZM79.5688 22.7021H79.5049C79.0859 22.2031 78.2807 21.7511 77.2659 21.7511C75.1387 21.7511 73.1898 23.6202 73.1898 26.0211C73.1898 28.4051 75.1387 30.2582 77.2659 30.2582C78.2807 30.2582 79.0859 29.8072 79.5049 29.2912H79.5688V29.9031C79.5688 31.5311 78.6997 32.4002 77.2978 32.4002C76.1539 32.4002 75.4448 31.5791 75.1548 30.8861L73.5279 31.5632C73.9947 32.691 75.2359 34.0762 77.2978 34.0762C79.4888 34.0762 81.3418 32.7872 81.3418 29.646V22.0092H79.5688V22.7021ZM82.6297 30.0001H84.4988V17.4982H82.6297V30.0001ZM87.2537 25.8761C87.2057 24.2321 88.5268 23.3951 89.4767 23.3951C90.2187 23.3951 90.8467 23.7652 91.0557 24.2971L87.2537 25.8761ZM93.0537 24.4582C92.6987 23.5071 91.6197 21.7511 89.4127 21.7511C87.2218 21.7511 85.4018 23.4751 85.4018 26.0052C85.4018 28.3891 87.2057 30.2582 89.6217 30.2582C91.5717 30.2582 92.6987 29.0661 93.1668 28.3732L91.7167 27.4062C91.2327 28.1151 90.5727 28.5822 89.6217 28.5822C88.6717 28.5822 87.9948 28.1471 87.5597 27.2942L93.2468 24.9411L93.0537 24.4582ZM47.7459 23.0572V24.8611H52.0629C51.9338 25.8761 51.5959 26.6171 51.0807 27.1321C50.4519 27.7611 49.4689 28.4532 47.7459 28.4532C45.0868 28.4532 43.009 26.3112 43.009 23.6522C43.009 20.9942 45.0868 18.8521 47.7459 18.8521C49.1799 18.8521 50.2269 19.4151 50.9999 20.1401L52.2727 18.8682C51.193 17.8371 49.7598 17.0472 47.7459 17.0472C44.1048 17.0472 41.0439 20.0122 41.0439 23.6522C41.0439 27.2942 44.1048 30.2582 47.7459 30.2582C49.7109 30.2582 51.193 29.613 52.3528 28.4051C53.5448 27.2131 53.9159 25.5382 53.9159 24.1842C53.9159 23.7652 53.8838 23.3792 53.8188 23.0572H47.7459ZM58.8238 28.5822C57.5359 28.5822 56.4239 27.5191 56.4239 26.0052C56.4239 24.4741 57.5359 23.4271 58.8238 23.4271C60.1128 23.4271 61.2247 24.4741 61.2247 26.0052C61.2247 27.5191 60.1128 28.5822 58.8238 28.5822ZM58.8238 21.7511C56.4717 21.7511 54.5548 23.5401 54.5548 26.0052C54.5548 28.4532 56.4717 30.2582 58.8238 30.2582C61.1758 30.2582 63.0938 28.4532 63.0938 26.0052C63.0938 23.5401 61.1758 21.7511 58.8238 21.7511ZM68.1377 28.5822C66.8487 28.5822 65.7368 27.5191 65.7368 26.0052C65.7368 24.4741 66.8487 23.4271 68.1377 23.4271C69.4269 23.4271 70.5378 24.4741 70.5378 26.0052C70.5378 27.5191 69.4269 28.5822 68.1377 28.5822ZM68.1377 21.7511C65.7859 21.7511 63.8687 23.5401 63.8687 26.0052C63.8687 28.4532 65.7859 30.2582 68.1377 30.2582C70.4898 30.2582 72.4067 28.4532 72.4067 26.0052C72.4067 23.5401 70.4898 21.7511 68.1377 21.7511Z" fill="white"/>
<path d="M20.7172 19.4243L10.0703 30.7244C10.0713 30.7262 10.0713 30.7293 10.0723 30.7312C10.3993 31.9583 11.5193 32.8613 12.8493 32.8613C13.3813 32.8613 13.8802 32.7173 14.3083 32.4653L14.3423 32.4453L26.3263 25.5304L20.7172 19.4243Z" fill="#EB3131"/>
<path d="M31.488 17.5004L31.4781 17.4933L26.3041 14.4942L20.4751 19.6813L26.325 25.5293L31.471 22.5603C32.373 22.0722 32.9861 21.1213 32.9861 20.0252C32.9861 18.9352 32.382 17.9894 31.488 17.5004Z" fill="#F6B60B"/>
<path d="M10.0696 9.2776C10.0056 9.51353 9.97168 9.76159 9.97168 10.0176V29.9856C9.97168 30.2416 10.0056 30.4895 10.0707 30.7246L21.0826 19.7135L10.0696 9.2776Z" fill="#5778C5"/>
<path d="M20.7963 20.002L26.3062 14.4929L14.3363 7.55294C13.9013 7.29192 13.3933 7.14188 12.8503 7.14188C11.5203 7.14188 10.3983 8.04696 10.0713 9.27491C10.0713 9.27596 10.0703 9.277 10.0703 9.27805L20.7963 20.002Z" fill="#3BAD49"/>
</g>
<mask id="mask1_6680_4544" style="mask-type:luminance" maskUnits="userSpaceOnUse" x="0" y="0" width="135" height="40">
<path d="M0 0H135V40H0V0Z" fill="white"/>
</mask>
<g mask="url(#mask1_6680_4544)">
<path d="M43.7483 12.2299C44.4561 12.2299 45.0055 12.0343 45.3969 11.6429C45.7883 11.2512 45.9841 10.7106 45.9841 10.0202C45.9841 9.33012 45.7883 8.78907 45.3969 8.39766C45.0055 8.00603 44.4561 7.81022 43.7483 7.81022H42.7391V12.2299H43.7483ZM41.7822 6.90576H43.7744C44.4183 6.90576 44.9794 7.03596 45.4577 7.29718C45.9363 7.55798 46.3045 7.92495 46.5628 8.39766C46.8209 8.87057 46.9498 9.4112 46.9498 10.0202C46.9498 10.6291 46.8209 11.1702 46.5628 11.6429C46.3045 12.1156 45.9363 12.4823 45.4577 12.7433C44.9794 13.0044 44.4183 13.1348 43.7744 13.1348H41.7822V6.90576Z" fill="white"/>
<path d="M48.1934 6.90576H49.1503V13.1348H48.1934V6.90576Z" fill="white"/>
<path d="M51.1529 12.821C50.741 12.5197 50.4539 12.0961 50.2915 11.5508L51.1964 11.1855C51.2892 11.5335 51.4545 11.8177 51.6923 12.0382C51.9299 12.2586 52.217 12.3688 52.5537 12.3688C52.8667 12.3688 53.1321 12.2875 53.3495 12.1251C53.567 11.9627 53.6759 11.7393 53.6759 11.4551C53.6759 11.1941 53.5802 10.9782 53.3888 10.8069C53.1973 10.6359 52.8667 10.4692 52.397 10.3068L52.0055 10.1676C51.5819 10.0167 51.2298 9.8065 50.9483 9.53671C50.667 9.26712 50.5264 8.90894 50.5264 8.46235C50.5264 8.15515 50.6091 7.87094 50.7744 7.60972C50.9398 7.34892 51.1715 7.14286 51.4703 6.99219C51.7692 6.84131 52.1069 6.76608 52.4841 6.76608C53.0235 6.76608 53.4554 6.89773 53.7804 7.16167C54.1049 7.42582 54.3254 7.72278 54.4416 8.05338L53.5802 8.41888C53.5221 8.21011 53.4003 8.03039 53.2149 7.87951C53.0291 7.72884 52.7886 7.6534 52.4927 7.6534C52.2085 7.6534 51.9677 7.72884 51.7706 7.87951C51.5734 8.03039 51.4749 8.22182 51.4749 8.45378C51.4749 8.6684 51.5631 8.84687 51.7401 8.98877C51.9169 9.13087 52.1909 9.26566 52.5623 9.39335L52.9624 9.53253C53.496 9.7181 53.9077 9.95884 54.1979 10.2545C54.488 10.5505 54.6328 10.9448 54.6328 11.4378C54.6328 11.8438 54.53 12.1847 54.3239 12.4599C54.1181 12.7355 53.8542 12.9399 53.5323 13.0734C53.2103 13.2068 52.8812 13.2734 52.5449 13.2734C52.0285 13.2734 51.5646 13.1226 51.1529 12.821Z" fill="white"/>
<path d="M58.0501 9.81139C58.3692 9.81139 58.6256 9.71129 58.8201 9.51109C59.0143 9.3111 59.1114 9.07767 59.1114 8.81102C59.1114 8.54415 59.0143 8.31072 58.8201 8.11052C58.6256 7.91053 58.3692 7.81022 58.0501 7.81022H56.8407V9.81139H58.0501ZM55.8838 6.90576H58.0239C58.3953 6.90576 58.7357 6.98685 59.0463 7.14922C59.3564 7.3116 59.603 7.53792 59.7858 7.82777C59.9685 8.11783 60.0598 8.44551 60.0598 8.81102C60.0598 9.17631 59.9685 9.50398 59.7858 9.79404C59.603 10.0841 59.3564 10.3102 59.0463 10.4726C58.7357 10.635 58.3953 10.7163 58.0239 10.7163H56.8407V13.1348H55.8838V6.90576Z" fill="white"/>
<path d="M65.2427 12.0685C65.5879 11.8685 65.8604 11.5901 66.0606 11.2332C66.2608 10.8765 66.3607 10.4721 66.3607 10.0197C66.3607 9.56743 66.2608 9.16264 66.0606 8.80591C65.8604 8.4494 65.5879 8.17083 65.2427 7.97083C64.8977 7.77063 64.5163 7.67053 64.0988 7.67053C63.6812 7.67053 63.2998 7.77063 62.9546 7.97083C62.6096 8.17083 62.3371 8.4494 62.1369 8.80591C61.9369 9.16264 61.8368 9.56743 61.8368 10.0197C61.8368 10.4721 61.9369 10.8765 62.1369 11.2332C62.3371 11.5901 62.6096 11.8685 62.9546 12.0685C63.2998 12.2687 63.6812 12.3688 64.0988 12.3688C64.5163 12.3688 64.8977 12.2687 65.2427 12.0685ZM62.4545 12.8386C61.9613 12.5485 61.5743 12.1554 61.293 11.6595C61.0115 11.1636 60.8711 10.6171 60.8711 10.0197C60.8711 9.42239 61.0115 8.8755 61.293 8.37981C61.5743 7.8839 61.9613 7.49102 62.4545 7.20096C62.9473 6.9109 63.4954 6.76608 64.0988 6.76608C64.7021 6.76608 65.2485 6.9109 65.7386 7.20096C66.2287 7.49102 66.6144 7.8839 66.8959 8.37981C67.177 8.8755 67.3176 9.42239 67.3176 10.0197C67.3176 10.6171 67.177 11.1636 66.8959 11.6595C66.6144 12.1554 66.2287 12.5485 65.7386 12.8386C65.2485 13.1286 64.7021 13.2734 64.0988 13.2734C63.4954 13.2734 62.9473 13.1286 62.4545 12.8386Z" fill="white"/>
<path d="M68.5527 6.90576H69.6837L72.5026 11.4817H72.5549L72.5026 10.2812V6.90576H73.451V13.1348H72.4592L69.5011 8.32368H69.4488L69.5011 9.52426V13.1348H68.5527V6.90576Z" fill="white"/>
<path d="M75.5296 5.26988H76.591L75.8949 6.40965H75.1206L75.5296 5.26988ZM75.0337 6.90576H75.9906V13.1348H75.0337V6.90576Z" fill="white"/>
<path d="M76.9121 6.90576H77.956L79.3655 11.0469L79.5828 11.7515H79.6351L79.87 11.0469L81.3406 6.90576H82.3844L80.1136 13.1348H79.1218L76.9121 6.90576Z" fill="white"/>
<path d="M83.3149 6.90576H87.0908V7.81022H84.2719V9.56793H86.8122V10.4726H84.2719V12.2299H87.0908V13.1348H83.3149V6.90576Z" fill="white"/>
<path d="M88.4307 6.90576H89.3876V12.2299H92.0673V13.1348H88.4307V6.90576Z" fill="white"/>
<path d="M95.0684 6.90576H96.1993L99.018 11.4817H99.0703L99.018 10.2812V6.90576H99.9664V13.1348H98.9746L96.0167 8.32368H95.9645L96.0167 9.52426V13.1348H95.0684V6.90576Z" fill="white"/>
<path d="M105.584 12.0685C105.929 11.8685 106.201 11.5901 106.401 11.2332C106.602 10.8765 106.702 10.4721 106.702 10.0197C106.702 9.56743 106.602 9.16264 106.401 8.80591C106.201 8.4494 105.929 8.17083 105.584 7.97083C105.238 7.77063 104.857 7.67053 104.44 7.67053C104.022 7.67053 103.641 7.77063 103.295 7.97083C102.95 8.17083 102.678 8.4494 102.478 8.80591C102.278 9.16264 102.178 9.56743 102.178 10.0197C102.178 10.4721 102.278 10.8765 102.478 11.2332C102.678 11.5901 102.95 11.8685 103.295 12.0685C103.641 12.2687 104.022 12.3688 104.44 12.3688C104.857 12.3688 105.238 12.2687 105.584 12.0685ZM102.795 12.8386C102.302 12.5485 101.915 12.1554 101.634 11.6595C101.352 11.1636 101.212 10.6171 101.212 10.0197C101.212 9.42239 101.352 8.8755 101.634 8.37981C101.915 7.8839 102.302 7.49102 102.795 7.20096C103.288 6.9109 103.836 6.76608 104.44 6.76608C105.043 6.76608 105.589 6.9109 106.079 7.20096C106.569 7.49102 106.955 7.8839 107.237 8.37981C107.518 8.8755 107.658 9.42239 107.658 10.0197C107.658 10.6171 107.518 11.1636 107.237 11.6595C106.955 12.1554 106.569 12.5485 106.079 12.8386C105.589 13.1286 105.043 13.2734 104.44 13.2734C103.836 13.2734 103.288 13.1286 102.795 12.8386Z" fill="white"/>
</g>
</svg>
