<svg width="135" height="46" viewBox="0 0 135 46" fill="none" xmlns="http://www.w3.org/2000/svg">
<g clip-path="url(#clip0_6680_4575)">
<path d="M124.249 0.000146661H10.7566C10.3429 0.000146661 9.9342 0.000146661 9.5216 0.00240298C9.17621 0.00465929 8.83358 0.0112139 8.48488 0.0167306C7.72733 0.0256451 6.97157 0.0922904 6.22416 0.216087C5.4778 0.342579 4.75482 0.581053 4.07967 0.923442C3.40534 1.26873 2.7892 1.71739 2.25358 2.25316C1.71514 2.78742 1.26632 3.40495 0.924356 4.082C0.581453 4.75771 0.343683 5.4818 0.219258 6.22925C0.0936495 6.97576 0.0260586 7.73087 0.0170916 8.48782C0.00662229 8.83371 0.00551669 9.18076 0 9.5267V35.6032C0.00551669 35.9535 0.00662229 36.2929 0.0170916 36.6433C0.0260614 37.4002 0.0936522 38.1553 0.219258 38.9017C0.343339 39.6496 0.581124 40.3741 0.924356 41.0501C1.26616 41.725 1.71505 42.34 2.25358 42.8713C2.78717 43.4094 3.40371 43.8584 4.07967 44.201C4.75481 44.5443 5.47772 44.7842 6.22416 44.9127C6.9717 45.0355 7.72738 45.1022 8.48488 45.1121C8.83358 45.1198 9.17621 45.1242 9.5216 45.1242C9.93419 45.1265 10.343 45.1265 10.7566 45.1265H124.249C124.655 45.1265 125.067 45.1265 125.472 45.1242C125.816 45.1242 126.169 45.1198 126.512 45.1121C127.268 45.1027 128.023 45.036 128.769 44.9127C129.518 44.7833 130.243 44.5435 130.921 44.201C131.597 43.8582 132.213 43.4092 132.746 42.8713C133.283 42.3379 133.733 41.7233 134.079 41.0501C134.42 40.3736 134.655 39.6492 134.777 38.9017C134.903 38.1552 134.973 37.4003 134.987 36.6433C134.991 36.2929 134.991 35.9535 134.991 35.6032C135 35.1934 135 34.7858 135 34.3693V10.7584C135 10.3453 135 9.93543 134.991 9.5267C134.991 9.18076 134.991 8.83371 134.987 8.48778C134.973 7.73076 134.903 6.97581 134.777 6.2292C134.655 5.48218 134.419 4.75816 134.079 4.08196C133.383 2.72487 132.278 1.62021 130.921 0.923341C130.243 0.581788 129.518 0.343378 128.769 0.215986C128.023 0.0916434 127.269 0.0249749 126.512 0.0165726C126.169 0.0110672 125.816 0.00445622 125.472 0.00225632C125.067 0 124.655 0.000146661 124.249 0.000146661Z" fill="#A6A6A6"/>
<path d="M9.52756 44.1384C9.18384 44.1384 8.84841 44.134 8.50738 44.1263C7.80091 44.1171 7.09609 44.0556 6.39869 43.9423C5.74841 43.8303 5.11847 43.622 4.52963 43.3242C3.94619 43.0289 3.41405 42.6416 2.95359 42.1773C2.48647 41.7184 2.09757 41.1863 1.8023 40.6018C1.50377 40.0136 1.29718 39.3831 1.18971 38.7322C1.07365 38.0329 1.01085 37.3258 1.00187 36.6169C0.994715 36.379 0.985352 35.5868 0.985352 35.5868V9.52574C0.985352 9.52574 0.995325 8.74572 1.00192 8.51656C1.01053 7.80884 1.07296 7.10281 1.18867 6.40457C1.29634 5.75195 1.50309 5.11962 1.80178 4.52945C2.09596 3.94542 2.4827 3.41284 2.94702 2.95235C3.4108 2.48748 3.94465 2.09825 4.52908 1.79884C5.11656 1.502 5.74532 1.29514 6.39428 1.18519C7.09396 1.07076 7.80123 1.00889 8.51016 1.0001L9.52812 0.986328H125.467L126.497 1.00066C127.2 1.009 127.901 1.07032 128.594 1.18408C129.25 1.29542 129.885 1.50372 130.479 1.80214C131.65 2.40554 132.603 3.36016 133.204 4.53221C133.497 5.11829 133.701 5.74547 133.807 6.39245C133.924 7.09642 133.99 7.808 134.003 8.52152C134.007 8.84102 134.007 9.1842 134.007 9.52574C134.016 9.9488 134.016 10.3515 134.016 10.7575V34.3683C134.016 34.7782 134.016 35.1781 134.007 35.5813C134.007 35.9482 134.007 36.2842 134.002 36.6301C133.989 37.3309 133.925 38.0298 133.809 38.7212C133.704 39.3767 133.499 40.0121 133.2 40.6052C132.903 41.1833 132.516 41.7109 132.055 42.1685C131.594 42.6353 131.061 43.0248 130.476 43.322C129.883 43.6221 129.249 43.8312 128.594 43.9423C127.897 44.0562 127.192 44.1177 126.485 44.1263C126.155 44.134 125.809 44.1384 125.473 44.1384L124.25 44.1406L9.52756 44.1384Z" fill="black"/>
<path d="M27.9427 22.9023C27.9549 21.9607 28.205 21.0374 28.6698 20.2184C29.1346 19.3994 29.7991 18.7113 30.6013 18.2181C30.0917 17.4903 29.4194 16.8913 28.6377 16.4687C27.8561 16.0462 26.9867 15.8117 26.0986 15.7839C24.2042 15.5851 22.3676 16.9175 21.4022 16.9175C20.4182 16.9175 18.9318 15.8036 17.3313 15.8366C16.296 15.87 15.287 16.1711 14.4027 16.7104C13.5184 17.2497 12.7888 18.0089 12.2851 18.914C10.1033 22.6916 11.7307 28.2433 13.8208 31.2968C14.8665 32.792 16.0886 34.4622 17.6877 34.403C19.2525 34.3381 19.8369 33.4051 21.7258 33.4051C23.5971 33.4051 24.1455 34.403 25.777 34.3653C27.4561 34.338 28.5141 32.8634 29.5231 31.3541C30.2744 30.2887 30.8525 29.1112 31.2361 27.8652C30.2606 27.4526 29.4281 26.762 28.8424 25.8795C28.2568 24.9969 27.9439 23.9615 27.9427 22.9023Z" fill="white"/>
<path d="M24.8609 13.7759C25.7764 12.6768 26.2274 11.2641 26.1182 9.83789C24.7195 9.9848 23.4275 10.6533 22.4996 11.7102C22.0459 12.2265 21.6984 12.8272 21.477 13.4779C21.2556 14.1286 21.1646 14.8165 21.2093 15.5024C21.9089 15.5096 22.601 15.3579 23.2335 15.0589C23.8661 14.7598 24.4225 14.3211 24.8609 13.7759Z" fill="white"/>
<path d="M47.7231 30.6193H42.3831L41.1007 34.406H38.8389L43.8969 20.3965H46.2468L51.3048 34.406H49.0044L47.7231 30.6193ZM42.9361 28.872H47.169L45.0823 22.7266H45.0239L42.9361 28.872Z" fill="white"/>
<path d="M62.2288 29.2984C62.2288 32.4724 60.5299 34.5117 57.9662 34.5117C57.3168 34.5456 56.6709 34.396 56.1025 34.08C55.5342 33.764 55.0663 33.2943 54.7525 32.7247H54.704V37.7838H52.6074V24.1908H54.6368V25.8896H54.6754C55.0036 25.3228 55.4794 24.8555 56.0521 24.5375C56.6248 24.2196 57.273 24.0628 57.9276 24.0839C60.5199 24.0839 62.2288 26.1331 62.2288 29.2984ZM60.0738 29.2984C60.0738 27.2304 59.0051 25.8709 57.3746 25.8709C55.7727 25.8709 54.6952 27.2591 54.6952 29.2984C54.6952 31.3564 55.7727 32.7346 57.3746 32.7346C59.0051 32.7346 60.0738 31.385 60.0738 29.2984Z" fill="white"/>
<path d="M73.47 29.2983C73.47 32.4724 71.7711 34.5117 69.2074 34.5117C68.558 34.5456 67.9121 34.396 67.3438 34.08C66.7754 33.764 66.3075 33.2942 65.9937 32.7247H65.9452V37.7837H63.8486V24.1908H65.878V25.8896H65.9165C66.2448 25.3228 66.7206 24.8555 67.2933 24.5375C67.8659 24.2196 68.5141 24.0628 69.1688 24.0839C71.7612 24.0839 73.47 26.1331 73.47 29.2983ZM71.315 29.2983C71.315 27.2304 70.2463 25.8709 68.6158 25.8709C67.0139 25.8709 65.9364 27.2591 65.9364 29.2983C65.9364 31.3563 67.0139 32.7346 68.6158 32.7346C70.2463 32.7346 71.315 31.385 71.315 29.2983Z" fill="white"/>
<path d="M80.9001 30.5018C81.0554 31.8911 82.405 32.8032 84.2493 32.8032C86.0165 32.8032 87.2878 31.891 87.2878 30.6383C87.2878 29.5509 86.521 28.8999 84.7054 28.4536L82.8898 28.0163C80.3173 27.3949 79.123 26.1918 79.123 24.2396C79.123 21.8224 81.2295 20.1621 84.2207 20.1621C87.1809 20.1621 89.2103 21.8224 89.2786 24.2396H87.1622C87.0355 22.8415 85.8798 21.9976 84.1909 21.9976C82.502 21.9976 81.3463 22.8514 81.3463 24.0941C81.3463 25.0846 82.0844 25.6674 83.8901 26.1135L85.4336 26.4925C88.308 27.1723 89.5023 28.3269 89.5023 30.3761C89.5023 32.9971 87.4145 34.6386 84.0939 34.6386C80.9871 34.6386 78.8894 33.0356 78.7539 30.5017L80.9001 30.5018Z" fill="white"/>
<path d="M94.0271 21.7734V24.1906H95.9695V25.8509H94.0271V31.4818C94.0271 32.3565 94.416 32.7642 95.2699 32.7642C95.5005 32.7601 95.7307 32.744 95.9595 32.7157V34.366C95.5757 34.4378 95.1855 34.4702 94.795 34.463C92.7271 34.463 91.9207 33.6863 91.9207 31.7054V25.8509H90.4355V24.1906H91.9206V21.7734H94.0271Z" fill="white"/>
<path d="M97.0947 29.2996C97.0947 26.0859 98.9875 24.0664 101.939 24.0664C104.9 24.0664 106.784 26.0858 106.784 29.2996C106.784 32.5221 104.91 34.5327 101.939 34.5327C98.9687 34.5327 97.0947 32.5221 97.0947 29.2996ZM104.648 29.2996C104.648 27.095 103.638 25.7939 101.939 25.7939C100.24 25.7939 99.2309 27.1049 99.2309 29.2996C99.2309 31.5129 100.24 32.8041 101.939 32.8041C103.638 32.8041 104.648 31.5129 104.648 29.2996Z" fill="white"/>
<path d="M108.513 24.1907H110.512V25.9292H110.561C110.696 25.3862 111.014 24.9064 111.462 24.5703C111.909 24.2342 112.458 24.0625 113.018 24.0838C113.259 24.083 113.5 24.1092 113.736 24.162V26.1231C113.431 26.0299 113.113 25.9871 112.794 25.9964C112.489 25.984 112.186 26.0377 111.904 26.1538C111.622 26.2699 111.369 26.4456 111.161 26.6688C110.954 26.8921 110.797 27.1576 110.701 27.4472C110.606 27.7367 110.575 28.0435 110.609 28.3463V34.4047H108.513L108.513 24.1907Z" fill="white"/>
<path d="M123.402 31.406C123.12 33.2602 121.314 34.5327 119.004 34.5327C116.033 34.5327 114.188 32.5419 114.188 29.348C114.188 26.1442 116.043 24.0664 118.916 24.0664C121.742 24.0664 123.519 26.0076 123.519 29.1046V29.8229H116.305V29.9496C116.272 30.3255 116.319 30.7042 116.443 31.0605C116.567 31.4168 116.766 31.7426 117.026 32.0162C117.286 32.2899 117.601 32.5051 117.95 32.6476C118.3 32.79 118.675 32.8566 119.053 32.8427C119.548 32.8891 120.045 32.7744 120.47 32.5155C120.895 32.2567 121.225 31.8675 121.411 31.406L123.402 31.406ZM116.315 28.3576H121.421C121.44 28.0196 121.389 27.6814 121.271 27.3641C121.153 27.0469 120.97 26.7575 120.735 26.514C120.5 26.2706 120.217 26.0785 119.904 25.9496C119.591 25.8207 119.254 25.758 118.916 25.7653C118.575 25.7632 118.236 25.8288 117.92 25.9583C117.604 26.0877 117.317 26.2784 117.075 26.5195C116.833 26.7605 116.642 27.047 116.511 27.3625C116.381 27.678 116.314 28.0162 116.315 28.3576Z" fill="white"/>
<path d="M40.2422 16.581V9.84961H42.948C44.2128 9.84961 44.973 10.493 44.973 11.5286C44.9733 11.8688 44.8559 12.1987 44.6409 12.4623C44.4259 12.7259 44.1263 12.9071 43.793 12.9752V13.0545C44.2066 13.0741 44.5963 13.254 44.8793 13.5562C45.1623 13.8584 45.3165 14.259 45.309 14.6729C45.309 15.8578 44.4463 16.5811 43.0086 16.5811L40.2422 16.581ZM41.2877 12.6997H42.5283C43.4526 12.6997 43.9329 12.3593 43.9329 11.7203C43.9329 11.0995 43.4801 10.7359 42.7056 10.7359H41.2877V12.6997ZM42.7993 15.6947C43.7413 15.6947 44.2403 15.3119 44.2403 14.5985C44.2403 13.894 43.7225 13.5254 42.7387 13.5254H41.2877V15.6947H42.7993Z" fill="white"/>
<path d="M46.3828 15.1438C46.3828 14.2293 47.0637 13.7022 48.2723 13.6273L49.6483 13.5479V13.1095C49.6483 12.5729 49.2936 12.2699 48.6083 12.2699C48.0486 12.2699 47.6608 12.4754 47.5495 12.8346H46.5789C46.6814 11.962 47.5022 11.4023 48.6545 11.4023C49.9281 11.4023 50.6465 12.0364 50.6465 13.1095V16.5804H49.6814V15.8665H49.602C49.441 16.1226 49.2149 16.3313 48.9469 16.4715C48.6788 16.6116 48.3783 16.6781 48.0762 16.6641C47.8629 16.6863 47.6474 16.6635 47.4434 16.5973C47.2395 16.5311 47.0517 16.4229 46.8922 16.2796C46.7326 16.1364 46.6049 15.9613 46.5171 15.7657C46.4294 15.57 46.3837 15.3582 46.3828 15.1438ZM49.6483 14.7097V14.285L48.4078 14.3643C47.7082 14.4111 47.3909 14.6491 47.3909 15.0969C47.3909 15.5541 47.7875 15.8202 48.3329 15.8202C48.4927 15.8364 48.6541 15.8203 48.8075 15.7728C48.961 15.7253 49.1033 15.6474 49.226 15.5438C49.3487 15.4402 49.4494 15.313 49.5219 15.1697C49.5945 15.0264 49.6374 14.8699 49.6483 14.7097Z" fill="white"/>
<path d="M52.0861 9.99866C52.0784 9.86881 52.1098 9.73962 52.1764 9.62785C52.2429 9.51607 52.3414 9.42684 52.4593 9.37173C52.5771 9.31661 52.7088 9.29815 52.8372 9.31873C52.9657 9.3393 53.085 9.39797 53.1797 9.48714C53.2744 9.5763 53.3401 9.69185 53.3684 9.81882C53.3967 9.94579 53.3862 10.0783 53.3383 10.1993C53.2904 10.3202 53.2073 10.424 53.0997 10.4971C52.9922 10.5703 52.8651 10.6094 52.735 10.6096C52.6519 10.6138 52.5687 10.6012 52.4906 10.5725C52.4125 10.5437 52.3409 10.4995 52.2803 10.4425C52.2197 10.3854 52.1712 10.3167 52.1379 10.2404C52.1045 10.1641 52.0869 10.0819 52.0861 9.99866ZM52.2348 11.5008H53.2341V16.5809H52.2348L52.2348 11.5008Z" fill="white"/>
<path d="M56.6747 14.7793L55.5642 16.58H54.4635L56.1481 14.0516L54.4492 11.5H55.6203L56.7121 13.2914H56.7915L57.8734 11.5H58.9883L57.3137 14.0097L59.0071 16.58H57.8557L56.7496 14.7793H56.6747Z" fill="white"/>
<path d="M59.8916 15.1438C59.8916 14.2293 60.5725 13.7022 61.781 13.6273L63.1571 13.5479V13.1095C63.1571 12.5729 62.8023 12.2699 62.1171 12.2699C61.5574 12.2699 61.1696 12.4754 61.0583 12.8346H60.0877C60.1902 11.962 61.011 11.4023 62.1633 11.4023C63.4369 11.4023 64.1553 12.0364 64.1553 13.1095V16.5804H63.1901V15.8665H63.1108C62.9498 16.1226 62.7237 16.3313 62.4557 16.4715C62.1876 16.6116 61.8871 16.6781 61.5849 16.6641C61.3717 16.6863 61.1561 16.6635 60.9522 16.5973C60.7483 16.5311 60.5605 16.4229 60.401 16.2796C60.2414 16.1364 60.1137 15.9613 60.0259 15.7657C59.9382 15.57 59.8924 15.3582 59.8916 15.1438ZM63.1571 14.7097V14.285L61.9166 14.3643C61.217 14.4111 60.8997 14.6491 60.8997 15.0969C60.8997 15.5541 61.2963 15.8202 61.8417 15.8202C62.0015 15.8364 62.1629 15.8203 62.3163 15.7728C62.4698 15.7253 62.6121 15.6474 62.7348 15.5438C62.8575 15.4402 62.9582 15.313 63.0307 15.1697C63.1033 15.0264 63.1462 14.8699 63.1571 14.7097Z" fill="white"/>
<path d="M65.7246 11.5015H66.6897V12.2804H66.7646C66.8727 12.01 67.0636 11.7808 67.3101 11.6257C67.5565 11.4706 67.8458 11.3976 68.1363 11.4172C68.2864 11.4152 68.4364 11.4292 68.5836 11.459V12.4484C68.3996 12.4091 68.212 12.3888 68.0239 12.3878C67.8585 12.373 67.6919 12.3929 67.5347 12.4463C67.3775 12.4997 67.2332 12.5854 67.1111 12.6978C66.989 12.8103 66.8917 12.9471 66.8256 13.0994C66.7595 13.2516 66.726 13.4161 66.7272 13.5821V16.5815H65.7246L65.7246 11.5015Z" fill="white"/>
<path d="M72.4473 11.5015H73.413V12.3085H73.4879C73.615 12.0187 73.8293 11.7757 74.1011 11.6134C74.3728 11.4512 74.6884 11.3778 75.0039 11.4034C75.251 11.3849 75.4992 11.4221 75.73 11.5125C75.9609 11.6028 76.1684 11.744 76.3373 11.9254C76.5061 12.1069 76.632 12.324 76.7056 12.5607C76.7791 12.7974 76.7985 13.0477 76.7622 13.2929V16.5815H75.7596V13.5446C75.7596 12.7283 75.4049 12.3223 74.6634 12.3223C74.4956 12.3145 74.3281 12.343 74.1723 12.406C74.0166 12.469 73.8763 12.5649 73.7611 12.6872C73.6459 12.8095 73.5584 12.9552 73.5048 13.1144C73.4512 13.2736 73.4326 13.4426 73.4504 13.6096V16.5815H72.4473L72.4473 11.5015Z" fill="white"/>
<path d="M78.0234 15.1438C78.0234 14.2293 78.7043 13.7022 79.9129 13.6273L81.2889 13.5479V13.1095C81.2889 12.5729 80.9342 12.2699 80.2489 12.2699C79.6892 12.2699 79.3014 12.4754 79.1902 12.8346H78.2195C78.322 11.962 79.1428 11.4023 80.2952 11.4023C81.5688 11.4023 82.2871 12.0364 82.2871 13.1095V16.5804H81.322V15.8665H81.2427C81.0817 16.1226 80.8556 16.3313 80.5875 16.4715C80.3194 16.6116 80.0189 16.6781 79.7168 16.6641C79.5035 16.6863 79.288 16.6635 79.0841 16.5973C78.8801 16.5311 78.6923 16.4229 78.5328 16.2796C78.3733 16.1364 78.2455 15.9613 78.1578 15.7657C78.07 15.57 78.0243 15.3582 78.0234 15.1438ZM81.2889 14.7097V14.285L80.0484 14.3643C79.3488 14.4111 79.0315 14.6491 79.0315 15.0969C79.0315 15.5541 79.4281 15.8202 79.9735 15.8202C80.1333 15.8364 80.2947 15.8203 80.4482 15.7728C80.6016 15.7253 80.7439 15.6474 80.8667 15.5438C80.9894 15.4402 81.09 15.313 81.1626 15.1697C81.2351 15.0264 81.2781 14.8699 81.2889 14.7097Z" fill="white"/>
</g>
<defs>
<clipPath id="clip0_6680_4575">
<rect width="135" height="45.1263" fill="white"/>
</clipPath>
</defs>
</svg>
