<svg width="33" height="32" viewBox="0 0 33 32" fill="none" xmlns="http://www.w3.org/2000/svg">
<path d="M16.6666 0C7.83081 0 0.666626 7.16417 0.666626 16C0.666626 24.8358 7.83081 32 16.6666 32C25.5025 32 32.6666 24.8358 32.6666 16C32.6428 7.16417 25.4786 0 16.6666 0ZM11.8428 18.7224C11.8428 20.5134 11.8428 22.3045 11.8428 24.1194C11.8428 24.3582 11.7711 24.406 11.5323 24.406C10.4577 24.3821 9.38307 24.406 8.33232 24.406C8.1174 24.406 8.04574 24.3821 8.04574 24.1433C8.04574 20.5373 8.04574 16.9313 8.04574 13.3493C8.04574 13.1104 8.09352 13.0388 8.33232 13.0388C9.38307 13.0627 10.4577 13.0627 11.5084 13.0388C11.7472 13.0388 11.8428 13.0866 11.8189 13.3493C11.8428 15.1403 11.8428 16.9313 11.8428 18.7224ZM11.8666 10.4836C11.4607 11.2239 10.5532 11.606 9.52635 11.4388C8.28456 11.2478 7.56812 10.1015 7.95021 8.90746C8.2129 8.07164 9.00097 7.54627 10.0278 7.54627C11.8666 7.59403 12.4875 9.33731 11.8666 10.4836ZM25.1681 24.406C24.0935 24.3821 23.0189 24.3821 21.9681 24.406C21.7293 24.406 21.6816 24.3343 21.6816 24.1194C21.6816 22.209 21.6816 20.2985 21.6816 18.3881C21.6816 17.9343 21.6577 17.5045 21.5144 17.0746C21.1323 15.8328 19.7711 15.3313 18.6726 16.0478C18.0995 16.4298 17.7413 16.9552 17.7174 17.6478C17.6935 18.794 17.6935 19.9164 17.6935 21.0627C17.6935 22.0657 17.6935 23.0925 17.6935 24.0955C17.6935 24.3105 17.6696 24.3821 17.4308 24.3821C16.3323 24.3582 15.2577 24.3582 14.1592 24.3821C13.9681 24.3821 13.9204 24.3343 13.9204 24.1194C13.9204 20.4895 13.9681 16.8597 13.9204 13.2299C13.9204 13.0627 13.9681 13.0149 14.1353 13.0149C15.2338 13.0149 16.3562 13.0149 17.4547 13.0149C17.6457 13.0149 17.6935 13.0627 17.6935 13.2537C17.6696 13.6836 17.6935 14.0896 17.6935 14.6149C17.789 14.4955 17.8129 14.4716 17.8368 14.4239C19.2935 12.1791 22.5174 12.4418 23.9263 13.7313C24.786 14.5194 25.192 15.5224 25.3592 16.6448C25.4308 17.0985 25.4308 17.5761 25.4308 18.0298C25.4308 20.0358 25.4308 22.0418 25.4308 24.0478C25.4786 24.3343 25.4308 24.4299 25.1681 24.406Z" fill="white"/>
</svg>
